<?xml version="1.0" encoding="UTF-8"?>
<svg width="21px" height="22px" viewBox="0 0 21 22" version="1.1" xmlns="http://www.w3.org/2000/svg" xmlns:xlink="http://www.w3.org/1999/xlink">
    <!-- Generator: Sketch 57.1 (83088) - https://sketch.com -->
    <title>Shape</title>
    <desc>Created with Sketch.</desc>
    <g id="mob" stroke="none" stroke-width="1" fill="none" fill-rule="evenodd">
        <g id="catalog-mob" transform="translate(-335.000000, -19.000000)" fill="#FFFFFF" fill-rule="nonzero" stroke="#FFFFFF" stroke-width="0.2">
            <g id="top">
                <g id="Group" transform="translate(20.000000, 14.000000)">
                    <path d="M320.330072,19.0217735 L320.330072,20.3605092 C320.330072,20.9433727 320.815764,21.4196465 321.415028,21.4196465 L332.130054,21.4196465 C333.445387,21.4196465 334.520128,22.4709709 334.520128,23.7598233 C334.520128,25.0486756 333.445387,26.1 332.130054,26.1 C330.813297,26.1 329.73998,25.0513972 329.73998,23.7598233 C329.73998,23.396954 329.824703,23.0463893 329.985296,22.7294588 L325.224423,22.7294588 C325.384095,23.0433331 325.469082,23.3964434 325.469082,23.7598233 C325.469082,25.0486756 324.394341,26.1 323.079008,26.1 C321.762252,26.1 320.688934,25.0513972 320.688934,23.7598233 C320.688934,23.3833777 320.782981,23.0164342 320.958214,22.6852335 C319.832873,22.4740632 318.99554,21.5037678 318.99554,20.3605092 L318.99554,8.26880227 L316.309426,7.15991206 C315.968333,7.01967774 315.808918,6.63582146 315.95303,6.30040429 C316.09651,5.96645835 316.486371,5.81152851 316.826708,5.95145232 L319.929447,7.2283283 C319.939103,7.23286355 319.939103,7.23286355 319.952694,7.23878255 C319.967467,7.24519479 319.967467,7.24519479 320.010063,7.27133637 C319.997337,7.26127014 319.994605,7.25910972 319.992332,7.25795905 C319.999961,7.26157959 319.999324,7.26150827 319.996678,7.26121163 C320.021484,7.27500185 320.021484,7.27500185 320.056285,7.30010929 C320.054108,7.29821822 320.054108,7.29821822 320.058117,7.3012425 C320.066714,7.30746666 320.066714,7.30746666 320.081497,7.32066137 C320.07178,7.31245941 320.07178,7.31245941 320.074598,7.31454984 C320.081234,7.31862503 320.081234,7.31862503 320.083002,7.32071546 C320.111914,7.34206736 320.111914,7.34206736 320.127658,7.35759617 L320.127719,7.35765511 C320.134021,7.36382074 320.134021,7.36382074 320.140324,7.36998636 C320.15293,7.38231761 320.15293,7.38231761 320.165536,7.39464886 C320.171839,7.40081448 320.171839,7.40081448 320.197257,7.43295234 C320.192911,7.42568976 320.192911,7.42568976 320.195978,7.42995143 C320.202365,7.438021 320.202365,7.438021 320.214065,7.45761484 C320.21242,7.4547529 320.21242,7.4547529 320.21396,7.45708718 C320.218593,7.46381371 320.218719,7.46399625 320.226041,7.47704458 C320.22513,7.47546346 320.225427,7.47591319 320.226566,7.47763926 C320.231328,7.48455342 320.231328,7.48455342 320.220162,7.47274676 C320.246602,7.50427505 320.246602,7.50427505 320.23697,7.49740926 C320.257731,7.52609999 320.262031,7.53204234 320.26429,7.53888874 C320.264842,7.54038323 320.262836,7.5370118 320.25808,7.52901946 C320.275126,7.55585572 320.275126,7.55585572 320.292254,7.61821942 C320.289605,7.59780644 320.288971,7.59292097 320.288925,7.59298491 C320.291923,7.60063272 320.29191,7.60066038 320.291111,7.60240651 C320.295313,7.61473775 320.295313,7.61473775 320.299515,7.627069 C320.301616,7.63323463 320.301616,7.63323463 320.309062,7.67165483 C320.307473,7.65715611 320.307061,7.65338985 320.306508,7.65144133 C320.310055,7.66130879 320.309904,7.66121323 320.307919,7.65995233 C320.313336,7.67812328 320.313336,7.67812328 320.315439,7.68861748 C320.316488,7.69353734 320.316488,7.69353734 320.321668,7.72509024 C320.321354,7.72023751 320.321354,7.72023751 320.322348,7.72679125 C320.324505,7.73873183 320.324506,7.73873438 320.314918,7.71658523 C320.329192,7.75323823 320.329106,7.75325851 320.326958,7.75376464 C320.333337,7.77872469 320.3346,7.80220669 320.334274,7.83607147 L320.334274,9.69700836 L334.512571,11.6121938 C334.532376,11.614095 334.539184,11.6147486 334.546113,11.6166782 C334.548598,11.6168246 334.551711,11.6170236 334.555923,11.6172931 C334.574631,11.6197815 334.574631,11.6197815 334.562995,11.6204146 C334.594493,11.6243705 334.59514,11.6244518 334.598619,11.6260575 C334.597911,11.6257143 334.59679,11.6256184 334.584005,11.6245251 C334.628934,11.6302807 334.628934,11.6302807 334.657355,11.6429151 C334.647418,11.6389676 334.647418,11.6389676 334.64978,11.6397188 C334.660024,11.6420504 334.660024,11.6420504 334.682567,11.651136 C334.68887,11.6542188 334.68887,11.6542188 334.695173,11.6573016 C334.701476,11.6603844 334.701476,11.6603844 334.707779,11.6634672 C334.714082,11.66655 334.714082,11.66655 334.720385,11.6696328 C334.726688,11.6727157 334.726688,11.6727157 334.732991,11.6757985 C334.739294,11.6788813 334.739294,11.6788813 334.745597,11.6819641 C334.7519,11.6850469 334.7519,11.6850469 334.784194,11.7064753 C334.777444,11.7013653 334.777444,11.7013653 334.783415,11.7045714 C334.797594,11.7121844 334.797594,11.7121844 334.804608,11.7168054 C334.807048,11.7183501 334.807048,11.7183501 334.804424,11.7169026 C334.824017,11.7280996 334.824017,11.7280996 334.832247,11.7343262 C334.836623,11.737348 334.836623,11.737348 334.829636,11.7333443 C334.857517,11.750945 334.857517,11.750945 334.866132,11.7599107 C334.866971,11.7601934 334.866971,11.7601934 334.876637,11.7681315 C334.882415,11.7737834 334.882415,11.7737834 334.887142,11.7784076 C334.891869,11.7830318 334.891869,11.7830318 334.897647,11.7886836 C334.889611,11.7817189 334.889611,11.7817189 334.899307,11.7893384 C334.914605,11.802289 334.914605,11.802289 334.93357,11.8310975 C334.924877,11.8180313 334.923042,11.8152723 334.922805,11.8151156 C334.932008,11.8237874 334.932253,11.824159 334.950377,11.8516496 C334.9417,11.8386053 334.939856,11.8358337 334.939615,11.8356685 C334.948813,11.8443347 334.948803,11.84436 334.94807,11.8462294 C334.954667,11.8526216 334.954667,11.8526216 334.964245,11.8631421 C334.973648,11.8750481 334.974923,11.8766617 334.980901,11.887259 C334.981253,11.8877223 334.981866,11.8885748 334.982714,11.8897528 C334.989101,11.8978224 334.989101,11.8978224 335.000801,11.9174163 C334.999156,11.9145543 334.999156,11.9145543 335.000696,11.9168886 C335.005459,11.9238028 335.005459,11.9238028 335.013407,11.9379683 C335.01971,11.9502996 335.01971,11.9502996 335.006898,11.9366586 C335.031908,11.9686108 335.031908,11.9686108 335.044232,11.9964413 C335.046654,12.0029453 335.046654,12.0029453 335.051225,12.0119558 C335.058259,12.0275426 335.058259,12.0275426 335.061492,12.0383731 C335.062637,12.0425511 335.062637,12.0425511 335.06327,12.045039 C335.063734,12.0463856 335.063896,12.0468538 335.062743,12.044106 C335.06925,12.0595029 335.069433,12.0602722 335.071674,12.0697015 C335.072386,12.0717658 335.072386,12.0717658 335.073646,12.0745392 C335.07896,12.0923392 335.07896,12.0923392 335.080708,12.1005688 C335.081037,12.1012244 335.081037,12.1012244 335.087394,12.1355667 C335.086055,12.1207592 335.086055,12.1207592 335.086381,12.1231369 C335.08743,12.1271783 335.08743,12.1271783 335.089152,12.1352386 C335.090872,12.1450983 335.090935,12.1454546 335.091527,12.1586853 C335.090311,12.156114 335.088201,12.1512456 335.084854,12.1435201 C335.097609,12.1762476 335.097682,12.1770739 335.099683,12.1997736 C335.100013,12.2086063 335.100013,12.2086063 335.1,12.2136646 C335.1,12.2223992 335.1,12.2223992 335.1,12.2301062 C335.1,12.2378133 335.1,12.2378133 335.1,12.2465479 C335.1,12.2501445 335.1,12.2501445 335.1,12.2547687 C335.1,12.2593929 335.1,12.2593929 335.1,12.2629896 L335.1,16.8995389 C335.1,18.2048329 334.012653,19.2684885 332.680512,19.2684885 L321.415028,19.2684885 C321.033612,19.2684885 320.66256,19.1824647 320.330072,19.0217735 Z M319.992332,7.25795905 C319.99171,7.25764461 319.991123,7.25740557 319.990375,7.25710121 C319.992728,7.25818333 319.994515,7.25900528 319.995825,7.25962419 Z M320.288925,7.59298491 C320.28891,7.59300503 320.288953,7.59351511 320.28901,7.59418567 C320.289056,7.59428776 320.289102,7.59438823 320.289147,7.59448711 Z M320.306508,7.65144133 C320.306314,7.65075755 320.306103,7.65029762 320.305818,7.64967629 C320.30614,7.65055844 320.306438,7.65137373 320.306712,7.65212664 Z M334.598619,11.6260575 C334.598692,11.6260912 334.598766,11.6261256 334.598842,11.6261607 C334.598769,11.6261223 334.598704,11.6260874 334.598634,11.6260547 Z M335.062743,12.044106 C335.062129,12.0426416 335.061142,12.0402636 335.059629,12.0366183 C335.060412,12.0384797 335.061132,12.0401893 335.061794,12.0417649 Z M334.799864,11.9792094 C334.799928,11.9792514 334.799876,11.9791069 334.799811,11.9789237 C334.799688,11.9788104 334.799566,11.9786987 334.799445,11.9785884 Z M334.763537,11.9343078 C334.76131,11.9309599 334.758674,11.9269616 334.755485,11.9221234 C334.759463,11.9281208 334.762078,11.9320634 334.764032,11.9348454 Z M334.769046,11.9410329 C334.770142,11.9420942 334.771315,11.9430434 334.772939,11.944358 C334.773035,11.9445278 334.773093,11.9446299 334.772156,11.943862 Z M334.759549,11.9274234 C334.760561,11.9280589 334.761635,11.9287331 334.762773,11.9294475 C334.759757,11.9275437 334.757067,11.9258458 334.754658,11.9243203 Z M320.115818,7.71242041 C320.116011,7.71310418 320.116222,7.71356411 320.116507,7.71418545 C320.116185,7.7133033 320.115888,7.71248801 320.115614,7.71173509 Z M320.099977,7.65108431 C320.099786,7.65019788 320.09959,7.64928525 320.099388,7.64834532 C320.098907,7.64767931 320.098438,7.64702876 320.097979,7.64639317 C320.099365,7.65705642 320.099749,7.65994485 320.099785,7.65989559 C320.096787,7.65224778 320.0968,7.65222013 320.097599,7.650474 C320.097011,7.64849333 320.096843,7.64792678 320.099977,7.65108431 Z M320.099785,7.65989559 C320.0998,7.65987547 320.099757,7.65936539 320.0997,7.65869483 C320.099653,7.65859274 320.099608,7.65849227 320.099563,7.65839339 Z M320.039258,7.5543739 C320.038966,7.55401325 320.038284,7.5530652 320.037259,7.55164161 C320.035682,7.54964884 320.034494,7.54814818 320.033711,7.54711416 Z M324.138752,23.7557128 C324.138752,23.1881312 323.664473,22.7253484 323.08321,22.7253484 C322.503454,22.7253484 322.027668,23.1907676 322.027668,23.7557128 C322.027668,24.3206581 322.503454,24.7860773 323.08321,24.7860773 C323.664473,24.7860773 324.138752,24.3232944 324.138752,23.7557128 Z M333.189798,23.7557128 C333.189798,23.1881312 332.715518,22.7253484 332.134256,22.7253484 C331.5545,22.7253484 331.078714,23.1907676 331.078714,23.7557128 C331.078714,24.3206581 331.5545,24.7860773 332.134256,24.7860773 C332.715518,24.7860773 333.189798,24.3232944 333.189798,23.7557128 Z M333.765468,12.8272267 L320.330072,11.0168205 L320.330072,16.8995389 C320.330072,17.4824024 320.815764,17.9586762 321.415028,17.9586762 L332.680512,17.9586762 C333.279177,17.9586762 333.765468,17.482981 333.765468,16.8954284 L333.765468,12.8272267 Z" id="Shape"></path>
                </g>
            </g>
        </g>
    </g>
</svg>