<?xml version="1.0" encoding="UTF-8"?>
<svg width="20px" height="22px" viewBox="0 0 20 22" version="1.1" xmlns="http://www.w3.org/2000/svg" xmlns:xlink="http://www.w3.org/1999/xlink">
    <!-- Generator: Sketch 57.1 (83088) - https://sketch.com -->
    <title>Combined Shape</title>
    <desc>Created with Sketch.</desc>
    <g id="mob" stroke="none" stroke-width="1" fill="none" fill-rule="evenodd">
        <g id="catalog-mob" transform="translate(-297.000000, -19.000000)" fill="#FFFFFF" fill-rule="nonzero" stroke="#FFFFFF" stroke-width="0.2">
            <g id="top">
                <g id="Group" transform="translate(20.000000, 14.000000)">
                    <path d="M286.923295,16.8765583 L286.921682,16.8765453 C285.612805,16.8554355 284.547721,16.418982 283.765333,15.5817942 C283.005681,14.772462 282.57747,13.6611621 282.406935,12.3762757 C282.299937,11.5701068 282.308459,10.8508335 282.362365,10.3355233 C282.457803,8.39802361 283.297815,7.15880871 284.566503,6.47934582 C285.338385,6.06397606 286.184612,5.9 286.971499,5.9 L286.997792,5.9 C287.001626,5.9 287.001626,5.9 287.006556,5.9 C287.011486,5.9 287.011486,5.9 287.01532,5.9 L287.047867,5.90001751 C287.944826,5.91680418 288.754553,6.11797034 289.451167,6.49600754 C290.702922,7.1728477 291.533285,8.41019118 291.628418,10.3300677 C291.682743,10.8508335 291.691264,11.5701068 291.584266,12.3762757 C291.413731,13.6611621 290.98552,14.772462 290.225821,15.5818445 C289.438589,16.4194012 288.373372,16.8554458 287.063524,16.8765583 C287.053117,16.8765583 287.053117,16.8765583 287.041613,16.8765583 C287.03011,16.8765583 287.03011,16.8765583 287.019702,16.8765583 C287.006556,16.8765583 287.006556,16.8765583 286.993409,16.8765583 C286.956161,16.8765583 286.956161,16.8765583 286.923295,16.8765583 Z M294.720047,21.9150125 C294.716284,21.8843228 294.71559,21.859391 294.715639,21.8077612 C294.673191,20.5010635 294.425207,19.8517226 293.626323,19.5823676 C291.964109,19.1785818 290.500012,18.4460781 289.593561,17.8413499 C289.278612,17.6315225 289.201471,17.2183808 289.424235,16.9197116 C289.64492,16.6238301 290.072782,16.5524694 290.386071,16.7612414 C291.004553,17.1996423 292.516875,17.9564078 293.992723,18.3121585 L294.039942,18.3256123 C294.992839,18.6327273 295.571096,19.2729089 295.861129,20.1579822 C296.024873,20.6576661 296.072171,21.0767691 296.094391,21.7713812 C296.09483,21.7937143 296.09483,21.7937143 296.096377,21.8183055 C296.098098,21.8445853 296.098098,21.8445853 296.098773,21.8749223 L296.098752,21.8853129 C296.112612,22.5664679 296.058321,23.3514201 295.881052,23.797064 C295.830091,23.9222915 295.734308,24.0306668 295.611915,24.1060974 C295.132743,24.3929158 294.409833,24.7403859 293.335086,25.1036264 C291.492158,25.7264948 289.372921,26.1 287.006556,26.1 C284.681823,26.1 282.593409,25.7398763 280.770508,25.1361384 C279.648359,24.7644868 278.809254,24.363235 278.401697,24.1063948 C278.278359,24.0335393 278.184422,23.9257346 278.132436,23.7979755 C277.94469,23.3493522 277.887247,22.56757 277.901193,21.8832056 L277.902056,21.8576689 C277.904964,21.8356782 277.905575,21.8166417 277.905627,21.7640187 C277.927941,21.0715743 277.975705,20.6511922 278.141149,20.1498901 C278.432067,19.2684001 279.009818,18.6297873 279.960651,18.3212706 C279.982027,18.3145238 279.982027,18.3145238 280.01119,18.3069842 C281.489636,17.9522618 282.98569,17.202392 283.613894,16.7570998 L283.616278,16.755461 C283.927184,16.5483277 284.355045,16.6196885 284.575731,16.91557 C284.798495,17.2142391 284.721353,17.6273809 284.403132,17.8392981 C284.282586,17.9173719 284.101388,18.0288679 283.855759,18.1680843 C283.449401,18.3983977 283.001122,18.6264957 282.518012,18.8396869 C281.814718,19.150043 281.095468,19.4028798 280.381944,19.575825 C279.574758,19.847581 279.326774,20.4969219 279.284379,21.8003727 C279.283723,21.8329165 279.283723,21.8329165 279.281983,21.8600959 C279.280418,21.8845512 279.280418,21.8845512 279.279969,21.9062645 C279.270402,22.3131451 279.306941,22.8656684 279.319089,23.0954504 C279.929304,23.4209625 280.787125,23.7759106 281.851686,24.0815597 C283.405193,24.5275914 285.129374,24.7858977 287.002174,24.7858977 C288.882962,24.7858977 290.608717,24.5283528 292.158704,24.0836257 C293.221408,23.7787113 294.076132,23.4241767 294.630109,23.1671205 C294.690625,22.8811488 294.724726,22.3499074 294.720047,21.9150125 Z M287.018649,7.22238559 L286.967116,7.22238559 C285.189602,7.22238559 283.84973,8.09155259 283.736666,10.4108511 C283.734686,10.4358549 283.734686,10.4358549 283.732674,10.4447559 C283.731932,10.4493647 283.731932,10.4493647 283.732284,10.4439843 L283.730764,10.4613509 C283.543741,11.5218956 283.775504,13.6246943 284.792238,14.7038461 C285.319389,15.2698205 286.032961,15.5502468 286.971499,15.5583144 L287.014465,15.558318 C287.956082,15.5502643 288.666363,15.2711311 289.199271,14.7035171 C290.219163,13.6183574 290.434046,11.639105 290.266143,10.4907472 C290.251601,10.4632604 290.248831,10.4344609 290.25027,10.4156833 C290.141269,8.16257672 288.855957,7.26130509 287.018648,7.22238559 Z M287.018648,7.22238559 C287.0183,7.22237821 287.017951,7.22237086 287.017603,7.22236354 L287.019702,7.22238559 L287.018649,7.22238559 Z M283.536926,10.4030784 C283.537515,10.3996173 283.537385,10.4007456 283.536784,10.4059871 C283.536831,10.4050173 283.536879,10.4040477 283.536926,10.4030784 Z" id="Combined-Shape"></path>
                </g>
            </g>
        </g>
    </g>
</svg>