<?xml version="1.0" encoding="UTF-8"?>
<svg width="19px" height="20px" viewBox="0 0 19 20" version="1.1" xmlns="http://www.w3.org/2000/svg" xmlns:xlink="http://www.w3.org/1999/xlink">
    <!-- Generator: Sketch 57.1 (83088) - https://sketch.com -->
    <title>Combined Shape</title>
    <desc>Created with Sketch.</desc>
    <g id="mob" stroke="none" stroke-width="1" fill="none" fill-rule="evenodd">
        <g id="home-menu-mob" transform="translate(-23.000000, -20.000000)" fill="#FFFFFF" fill-rule="nonzero">
            <g id="top">
                <g id="Group" transform="translate(23.000000, 10.000000)">
                    <path d="M2.42893219,11.1611652 L9.50004871,18.2330487 L16.5710678,11.1611652 C17.0592232,10.6730099 17.8506794,10.6730099 18.3388348,11.1611652 C18.8269901,11.6493206 18.8269901,12.4407768 18.3388348,12.9289322 L11.2670487,20.0000487 L18.3388348,27.0710678 C18.8269901,27.5592232 18.8269901,28.3506794 18.3388348,28.8388348 C17.8506794,29.3269901 17.0592232,29.3269901 16.5710678,28.8388348 L9.50004871,21.7670487 L2.42893219,28.8388348 C1.94077682,29.3269901 1.1493206,29.3269901 0.661165235,28.8388348 C0.17300987,28.3506794 0.17300987,27.5592232 0.661165235,27.0710678 L7.73304871,20.0000487 L0.661165235,12.9289322 C0.17300987,12.4407768 0.17300987,11.6493206 0.661165235,11.1611652 C1.1493206,10.6730099 1.94077682,10.6730099 2.42893219,11.1611652 Z" id="Combined-Shape"></path>
                </g>
            </g>
        </g>
    </g>
</svg>